<svg width="1440" height="608" viewBox="0 0 1440 608" fill="none" xmlns="http://www.w3.org/2000/svg">
  <path
    d="M0 128L48 133.3C96 139 192 149 288 176C384 203 480 245 576 234.7C672 224 768 160 864 149.3C960 139 1056 181 1152 197.3C1248 213 1344 203 1392 197.3L1440 192V320H1392C1344 320 1248 320 1152 320C1056 320 960 320 864 320C768 320 672 320 576 320C480 320 384 320 288 320C192 320 96 320 48 320H0L0 128Z"
    fill="#18181B" />
  <rect y="320" width="1440" height="288" fill="#18181B" />
</svg>
